#Comment line ignore any data following # character 
#Hierarchical Translation and Rotation (.htr) file 
[Header]	
#Header keywords are followed by a single value 
FileType HTR		#Single word string
DataType HTRS		#Translation followed by rotation and scale data
FileVersion 1		#integer
NumSegments 64		#integer
NumFrames 3		#integer
DataFrameRate 30		#integer, data frame rate in this file
EulerRotationOrder ZYX
CalibrationUnits mm
RotationUnits Degrees
GlobalAxisofGravity Y
BoneLengthAxis Y
ScaleFactor 1.00
[SegmentNames&Hierarchy]
#CHILD	PARENT
Pinger_Root GLOBAL
Pelvis Pinger_Root
L_Hip Pelvis
R_Hip Pelvis
Rear_Leg01 Pelvis
Spine1 Pelvis
L_Leg01 L_Hip
L_Leg02 L_Leg01
L_Leg03 L_Leg02
L_Foot L_Leg03
L_Toe1_01 L_Foot
L_Toe2_01 L_Foot
L_Toe3_01 L_Foot
planeAlignerLeft L_Foot
L_Toe1_02 L_Toe1_01
L_Toe1_03 L_Toe1_02
L_Toe2_02 L_Toe2_01
L_Toe2_03 L_Toe2_02
L_Toe3_02 L_Toe3_01
L_Toe3_03 L_Toe3_02
planeLockWeightLeft planeAlignerLeft
R_Leg01 R_Hip
R_Leg02 R_Leg01
R_Leg03 R_Leg02
R_Foot R_Leg03
planeAlignerRight R_Foot
R_Toe1_01 R_Foot
R_Toe2_01 R_Foot
R_Toe3_01 R_Foot
planeLockWeightRight planeAlignerRight
R_Toe1_02 R_Toe1_01
R_Toe1_03 R_Toe1_02
R_Toe2_02 R_Toe2_01
R_Toe2_03 R_Toe2_02
R_Toe3_02 R_Toe3_01
R_Toe3_03 R_Toe3_02
Rear_Leg02 Rear_Leg01
Rear_Leg03 Rear_Leg02
Rear_Leg04 Rear_Leg03
Rear_Foot Rear_Leg04
planeAlignerCenter Rear_Foot
Rear_Toe1_01 Rear_Foot
Rear_Toe2_01 Rear_Foot
Rear_Toe3_01 Rear_Foot
planeLockWeightCenter planeAlignerCenter
Rear_Toe1_02 Rear_Toe1_01
Rear_Toe1_03 Rear_Toe1_02
Rear_Toe2_02 Rear_Toe2_01
Rear_Toe2_03 Rear_Toe2_02
Rear_Toe3_02 Rear_Toe3_01
Rear_Toe3_03 Rear_Toe3_02
Back_Bone Spine1
Head Spine1
Motor_Bone Back_Bone
Ping_Mechanism Back_Bone
BN_LookIK Head
bottomMouth Head
L_Mouth01 Head
L_mouthFront Head
mouthGun Head
R_Mouth01 Head
R_mouthFront Head
TopMouth Head
weapon_bone Head
[BasePosition]
#SegmentName Tx, Ty, Tz, Rx, Ry, Rz, BoneLength
Pinger_Root 0.000000 0.000000 0.000000 -90.000000 0.000000 0.000000 10.000000 
Pelvis 0.000000 0.000000 0.000000 0.000000 0.000000 0.000000 10.000000 
L_Hip 0.000000 0.000000 0.000000 0.000000 0.000000 0.000000 10.000000 
R_Hip 0.000000 0.000000 0.000000 0.000000 0.000000 0.000000 10.000000 
Rear_Leg01 0.000000 0.000000 0.000000 0.000000 0.000000 0.000000 10.000000 
Spine1 0.000000 0.000000 0.000000 0.000000 0.000000 0.000000 10.000000 
L_Leg01 0.000000 0.000000 0.000000 0.000000 0.000000 0.000000 10.000000 
L_Leg02 0.000000 0.000000 0.000000 0.000000 0.000000 0.000000 10.000000 
L_Leg03 0.000000 0.000000 0.000000 0.000000 0.000000 0.000000 10.000000 
L_Foot 0.000000 0.000000 0.000000 0.000000 0.000000 0.000000 10.000000 
L_Toe1_01 0.000000 0.000000 0.000000 0.000000 0.000000 0.000000 10.000000 
L_Toe2_01 0.000000 0.000000 0.000000 0.000000 0.000000 0.000000 10.000000 
L_Toe3_01 0.000000 0.000000 0.000000 0.000000 0.000000 0.000000 10.000000 
planeAlignerLeft 0.000000 0.000000 0.000000 0.000000 0.000000 0.000000 10.000000 
L_Toe1_02 0.000000 0.000000 0.000000 0.000000 0.000000 0.000000 10.000000 
L_Toe1_03 0.000000 0.000000 0.000000 0.000000 0.000000 0.000000 10.000000 
L_Toe2_02 0.000000 0.000000 0.000000 0.000000 0.000000 0.000000 10.000000 
L_Toe2_03 0.000000 0.000000 0.000000 0.000000 0.000000 0.000000 10.000000 
L_Toe3_02 0.000000 0.000000 0.000000 0.000000 0.000000 0.000000 10.000000 
L_Toe3_03 0.000000 0.000000 0.000000 0.000000 0.000000 0.000000 10.000000 
planeLockWeightLeft 0.000000 0.000000 0.000000 0.000000 0.000000 0.000000 10.000000 
R_Leg01 0.000000 0.000000 0.000000 0.000000 0.000000 0.000000 10.000000 
R_Leg02 0.000000 0.000000 0.000000 0.000000 0.000000 0.000000 10.000000 
R_Leg03 0.000000 0.000000 0.000000 0.000000 0.000000 0.000000 10.000000 
R_Foot 0.000000 0.000000 0.000000 0.000000 0.000000 0.000000 10.000000 
planeAlignerRight 0.000000 0.000000 0.000000 0.000000 0.000000 0.000000 10.000000 
R_Toe1_01 0.000000 0.000000 0.000000 0.000000 0.000000 0.000000 10.000000 
R_Toe2_01 0.000000 0.000000 0.000000 0.000000 0.000000 0.000000 10.000000 
R_Toe3_01 0.000000 0.000000 0.000000 0.000000 0.000000 0.000000 10.000000 
planeLockWeightRight 0.000000 0.000000 0.000000 0.000000 0.000000 0.000000 10.000000 
R_Toe1_02 0.000000 0.000000 0.000000 0.000000 0.000000 0.000000 10.000000 
R_Toe1_03 0.000000 0.000000 0.000000 0.000000 0.000000 0.000000 10.000000 
R_Toe2_02 0.000000 0.000000 0.000000 0.000000 0.000000 0.000000 10.000000 
R_Toe2_03 0.000000 0.000000 0.000000 0.000000 0.000000 0.000000 10.000000 
R_Toe3_02 0.000000 0.000000 0.000000 0.000000 0.000000 0.000000 10.000000 
R_Toe3_03 0.000000 0.000000 0.000000 0.000000 0.000000 0.000000 10.000000 
Rear_Leg02 0.000000 0.000000 0.000000 0.000000 0.000000 0.000000 10.000000 
Rear_Leg03 0.000000 0.000000 0.000000 0.000000 0.000000 0.000000 10.000000 
Rear_Leg04 0.000000 0.000000 0.000000 0.000000 0.000000 0.000000 10.000000 
Rear_Foot 0.000000 0.000000 0.000000 0.000000 0.000000 0.000000 10.000000 
planeAlignerCenter 0.000000 0.000000 0.000000 0.000000 0.000000 0.000000 10.000000 
Rear_Toe1_01 0.000000 0.000000 0.000000 0.000000 0.000000 0.000000 10.000000 
Rear_Toe2_01 0.000000 0.000000 0.000000 0.000000 0.000000 0.000000 10.000000 
Rear_Toe3_01 0.000000 0.000000 0.000000 0.000000 0.000000 0.000000 10.000000 
planeLockWeightCenter 0.000000 0.000000 0.000000 0.000000 0.000000 0.000000 10.000000 
Rear_Toe1_02 0.000000 0.000000 0.000000 0.000000 0.000000 0.000000 10.000000 
Rear_Toe1_03 0.000000 0.000000 0.000000 0.000000 0.000000 0.000000 10.000000 
Rear_Toe2_02 0.000000 0.000000 0.000000 0.000000 0.000000 0.000000 10.000000 
Rear_Toe2_03 0.000000 0.000000 0.000000 0.000000 0.000000 0.000000 10.000000 
Rear_Toe3_02 0.000000 0.000000 0.000000 0.000000 0.000000 0.000000 10.000000 
Rear_Toe3_03 0.000000 0.000000 0.000000 0.000000 0.000000 0.000000 10.000000 
Back_Bone 0.000000 0.000000 0.000000 0.000000 0.000000 0.000000 10.000000 
Head 0.000000 0.000000 0.000000 0.000000 0.000000 0.000000 10.000000 
Motor_Bone 0.000000 0.000000 0.000000 0.000000 0.000000 0.000000 10.000000 
Ping_Mechanism 0.000000 0.000000 0.000000 0.000000 0.000000 0.000000 10.000000 
BN_LookIK 0.000000 0.000000 0.000000 0.000000 0.000000 0.000000 10.000000 
bottomMouth 0.000000 0.000000 0.000000 0.000000 0.000000 0.000000 10.000000 
L_Mouth01 0.000000 0.000000 0.000000 0.000000 0.000000 0.000000 10.000000 
L_mouthFront 0.000000 0.000000 0.000000 0.000000 0.000000 0.000000 10.000000 
mouthGun 0.000000 0.000000 0.000000 0.000000 0.000000 0.000000 10.000000 
R_Mouth01 0.000000 0.000000 0.000000 0.000000 0.000000 0.000000 10.000000 
R_mouthFront 0.000000 0.000000 0.000000 0.000000 0.000000 0.000000 10.000000 
TopMouth 0.000000 0.000000 0.000000 0.000000 0.000000 0.000000 10.000000 
weapon_bone 0.000000 0.000000 0.000000 0.000000 0.000000 0.000000 10.000000 
#Beginning of Data. Separated by tabs
#Fr	Tx	Ty	Tz	Rx	Ry	Rz	SF
[Pinger_Root]
52 0.000000 0.000000 0.000000 -0.000075 -0.000000 -0.000020 0.000000
53 0.000000 0.000000 0.000000 -0.000075 -0.000000 -0.000020 0.000000
54 0.000000 0.000000 0.000000 -0.000075 -0.000000 -0.000020 0.000000
[Pelvis]
52 -773.773804 837.473572 3906.067627 -140.997650 -82.634789 146.060776 4069.084717
53 -707.551025 904.669861 3984.342041 -132.218475 -83.739883 137.228104 4146.569336
54 -636.439392 985.424744 4091.270020 -120.105965 -84.638855 125.062256 4256.125488
[L_Hip]
52 5.766392 125.831482 872.656799 -152.293610 -41.845699 57.260994 881.701050
53 5.766392 125.831482 872.656799 -155.093521 -43.352154 61.395477 881.701050
54 5.766392 125.831482 872.656799 -163.016357 -46.405350 72.604622 881.701050
[R_Hip]
52 5.765438 125.836372 -872.654907 38.087841 49.812687 125.703735 881.699829
53 5.765438 125.836372 -872.654907 38.087841 49.812687 125.703735 881.699829
54 5.765438 125.836372 -872.654907 38.087841 49.812687 125.703735 881.699829
[Rear_Leg01]
52 -192.298416 -925.602966 -0.001907 -177.866211 0.544201 -123.771172 945.367432
53 -192.298416 -925.602966 -0.001907 -177.505081 0.606302 -123.612175 945.367432
54 -192.298416 -925.602966 -0.001907 -177.143738 0.667375 -123.452812 945.367432
[Spine1]
52 290.604584 5.007505 0.000477 4.299555 9.577675 40.566067 290.647736
53 290.604584 5.007505 0.000477 3.043477 8.291418 39.720829 290.647736
54 290.604584 5.007505 0.000477 1.355634 6.799954 38.955692 290.647736
[L_Leg01]
52 761.932007 -0.002384 -0.069261 42.513561 -14.511075 -68.149101 761.932068
53 761.932007 -0.002384 -0.069261 42.012402 -15.474170 -65.120682 761.932068
54 761.932007 -0.002384 -0.069261 40.696404 -18.447626 -54.555492 761.932068
[L_Leg02]
52 1441.140503 -0.000954 -0.000715 1.985146 -0.050243 -102.010468 1441.140503
53 1441.140503 -0.000954 -0.000715 1.661487 -0.086070 -103.351425 1441.140503
54 1441.140503 -0.000954 -0.000715 1.833172 -0.081063 -110.184616 1441.140503
[L_Leg03]
52 1686.963989 -0.000715 -0.000954 -0.049314 0.022160 123.530800 1686.963989
53 1686.963989 -0.000715 -0.000954 -0.042890 0.019556 121.958755 1686.963989
54 1686.963989 -0.000715 -0.000954 -0.039631 0.018369 121.303398 1686.963989
[L_Foot]
52 3041.570068 -30.715107 11.297464 -19.600668 17.718746 39.720451 3041.746094
53 3041.570068 -30.715107 11.297464 -20.161867 17.806875 41.860413 3041.746094
54 3041.570068 -30.715107 11.297464 -19.969097 17.851017 45.611542 3041.746094
[L_Toe1_01]
52 -188.216690 -224.732346 -21.137953 76.947975 -14.659302 -177.464676 293.899567
53 -188.216690 -224.732346 -21.137953 77.054527 -13.887779 -177.284622 293.899567
54 -188.216690 -224.732346 -21.137953 77.332870 -11.975809 -177.108185 293.899567
[L_Toe2_01]
52 200.746536 -219.926590 148.838394 -73.264595 -22.387878 -63.194885 332.896027
53 200.746536 -219.926590 148.838394 -73.703880 -21.273529 -63.386364 332.896027
54 200.746536 -219.926590 148.838394 -74.808434 -18.686075 -63.571938 332.896027
[L_Toe3_01]
52 188.832520 -219.859131 -191.078659 -112.608330 37.233772 -58.268726 347.140900
53 188.832520 -219.859131 -191.078659 -113.829834 36.984451 -60.181049 347.140900
54 188.832520 -219.859131 -191.078659 -116.585457 36.325508 -64.258720 347.140900
[planeAlignerLeft]
52 -49.481430 -581.735901 143.604279 -10.762571 -84.781654 -89.960121 601.238098
53 -43.379658 -593.317444 125.829559 -10.727132 -84.905991 -90.000153 608.062927
54 -27.059637 -616.848022 82.615570 -10.771177 -85.282005 -89.951340 622.943848
[L_Toe1_02]
52 413.761139 0.000477 0.000000 0.001406 -23.233763 0.001406 413.761139
53 413.761139 0.000477 0.000000 0.001408 -22.981373 0.001408 413.761139
54 413.761139 0.000477 0.000000 0.001414 -22.235415 0.001414 413.761139
[L_Toe1_03]
52 464.317322 0.000358 -0.000089 0.010671 77.371223 0.010671 464.317322
53 464.317322 0.000358 -0.000089 0.011849 78.631241 0.011849 464.317322
54 464.317322 0.000358 -0.000089 0.016385 81.781738 0.016385 464.317322
[L_Toe2_02]
52 342.235809 -0.000477 0.000238 0.001186 -73.342545 0.001186 342.235809
53 342.235809 -0.000477 0.000238 0.001186 -73.102264 0.001186 342.235809
54 342.235809 -0.000477 0.000238 0.001187 -72.561432 0.001187 342.235809
[L_Toe2_03]
52 420.210846 -0.000715 0.000000 -0.033596 87.931709 -0.030099 420.210846
53 420.210846 -0.000715 0.000000 -0.025973 87.280914 -0.022475 420.210846
54 420.210846 -0.000715 0.000000 0.032080 85.806892 0.032080 420.210846
[L_Toe3_02]
52 329.270111 0.000954 0.000000 0.004676 -84.319176 0.004676 329.270111
53 329.270111 0.000954 0.000000 0.004677 -84.032608 0.004677 329.270111
54 329.270111 0.000954 0.000000 0.001176 -83.051178 0.001176 329.270111
[L_Toe3_03]
52 439.137451 -0.001907 0.000954 179.992432 55.064796 179.999756 439.137451
53 439.137451 -0.001907 0.000954 179.992065 58.256195 179.999344 439.137451
54 439.137451 -0.001907 0.000954 179.990753 66.094505 179.997910 439.137451
[planeLockWeightLeft]
52 1000.000122 -0.000262 -0.000188 -0.011826 -0.004376 0.005620 1000.000122
53 1000.000244 -0.000276 -0.000183 -0.011826 -0.004376 0.005620 1000.000244
54 1000.000244 -0.000291 -0.000177 -0.011826 -0.004376 0.005620 1000.000244
[R_Leg01]
52 761.455627 -0.001907 -0.000358 127.874123 14.958876 31.842619 761.455688
53 761.455627 -0.001907 -0.000358 134.973938 18.418501 38.282639 761.455688
54 761.455627 -0.001907 -0.000358 137.763702 20.245165 42.554188 761.455688
[R_Leg02]
52 1441.140625 0.000000 -0.000238 -0.887247 -0.044692 -97.268715 1441.140625
53 1441.140625 0.000000 -0.000238 1.122862 0.192173 -92.003563 1441.140625
54 1441.140625 0.000000 -0.000238 2.962047 0.328216 -87.853226 1441.140625
[R_Leg03]
52 1686.963989 0.000954 0.001431 0.074042 -0.038476 130.472763 1686.963989
53 1686.963989 0.000954 0.001431 0.074223 -0.038127 129.932999 1686.963989
54 1686.963989 0.000954 0.001431 0.067988 -0.035099 128.850128 1686.963989
[R_Foot]
52 3041.560059 -30.531288 -11.204481 19.068058 -7.702193 36.186222 3041.734131
53 3041.560059 -30.531288 -11.204481 15.789506 -13.425650 40.538982 3041.734131
54 3041.560059 -30.531288 -11.204481 14.039528 -16.813833 43.592400 3041.734131
[planeAlignerRight]
52 36.595848 -496.392944 -214.268738 -36.577137 -71.339012 -64.343925 541.900635
53 -2.573565 -479.032410 -272.786743 -36.577137 -71.339012 -64.343925 551.263367
54 -20.367702 -473.249847 -300.031372 -36.577137 -71.339012 -64.343925 560.713013
[R_Toe1_01]
52 -188.383347 -224.864899 21.052242 83.343651 5.647276 -171.888153 294.101532
53 -188.383347 -224.864899 21.052242 79.913483 -0.293572 178.184097 294.101532
54 -188.383347 -224.864899 21.052242 78.138420 -2.686910 174.739120 294.101532
[R_Toe2_01]
52 200.637817 -220.002121 -148.787384 -91.810875 22.945328 -51.370796 332.857574
53 200.637817 -220.002121 -148.787384 -93.027573 28.317860 -50.600853 332.857574
54 200.637817 -220.002121 -148.787384 -93.697113 30.697025 -50.440369 332.857574
[R_Toe3_01]
52 188.606735 -220.092957 191.126343 -48.977425 -1.418408 -65.465897 347.192566
53 188.606735 -220.092957 191.126343 -56.830177 -4.177650 -64.087730 347.192566
54 188.606735 -220.092957 191.126343 -61.705822 -5.818642 -63.772049 347.192566
[planeLockWeightRight]
52 999.999390 0.000305 -0.000531 -0.011823 -0.004379 -0.000027 999.999390
53 999.999329 0.000305 -0.000539 -0.011823 -0.004379 -0.000027 999.999329
54 999.999329 0.000305 -0.000546 -0.011823 -0.004379 -0.000027 999.999329
[R_Toe1_02]
52 413.762085 0.000477 -0.000119 0.001443 -18.807051 0.001443 413.762085
53 413.762085 0.000477 -0.000119 0.001439 -19.248306 0.001439 413.762085
54 413.762085 0.000477 -0.000119 0.001433 -20.021255 0.001433 413.762085
[R_Toe1_03]
52 464.317810 0.000000 0.001088 -179.987396 85.409317 -179.983902 464.317810
53 464.317810 0.000000 0.001088 -179.980606 86.884979 -179.977112 464.317810
54 464.317810 0.000000 0.001088 0.000000 89.585510 0.003501 464.317810
[R_Toe2_02]
52 342.234741 -0.000954 0.000238 0.001197 -67.569023 0.001197 342.234741
53 342.234741 -0.000954 0.000238 0.001200 -65.819527 0.001200 342.234741
54 342.234741 -0.000954 0.000238 0.001203 -64.695488 0.001203 342.234741
[R_Toe2_03]
52 420.210846 0.000715 -0.000268 0.008532 74.187660 0.008532 420.210846
53 420.210846 0.000715 -0.000268 -0.005231 70.869194 -0.001685 420.210846
54 420.210846 0.000715 -0.000268 -0.004906 68.815910 -0.001348 420.210846
[R_Toe3_02]
52 329.270355 -0.000477 -0.000954 0.001182 -76.596092 0.001182 329.270355
53 329.270355 -0.000477 -0.000954 0.001183 -75.716515 0.001183 329.270355
54 329.270355 -0.000477 -0.000954 0.001184 -75.161125 0.001184 329.270355
[R_Toe3_03]
52 439.137939 0.000238 0.001431 -0.051508 88.676323 -0.048011 439.137939
53 439.137939 0.000238 0.001431 -0.019991 86.389030 -0.016493 439.137939
54 439.137939 0.000238 0.001431 -0.014799 84.950722 -0.011298 439.137939
[Rear_Leg02]
52 1162.777710 -0.029802 0.005960 3.422462 -7.019205 -95.910439 1162.777710
53 1162.777710 -0.029802 0.005960 2.796185 -7.094563 -91.294884 1162.777710
54 1162.777710 -0.029802 0.005960 1.974639 -6.950315 -85.155891 1162.777710
[Rear_Leg03]
52 607.192505 -0.013351 -0.073195 0.010418 -0.005256 69.894798 607.192505
53 607.192505 -0.013351 -0.073195 0.010486 -0.005119 68.399200 607.192505
54 607.192505 -0.013351 -0.073195 0.010572 -0.004938 66.425407 607.192505
[Rear_Leg04]
52 995.874512 -0.020504 -0.011921 -0.040655 -0.017780 70.118240 995.874573
53 995.874512 -0.020504 -0.011921 -0.040121 -0.018955 66.786461 995.874573
54 995.874512 -0.020504 -0.011921 -0.043627 -0.017850 62.560024 995.874573
[Rear_Foot]
52 3096.176270 -0.067472 -0.041425 -58.059254 81.848900 126.556908 3096.176270
53 3096.176270 -0.067472 -0.041425 -63.921753 82.577095 120.975182 3096.176270
54 3096.176270 -0.067472 -0.041425 -70.940262 83.215942 114.236893 3096.176270
[planeAlignerCenter]
52 1.035289 -66.090263 -699.224915 12.240772 -0.001473 179.998184 702.342102
53 0.432410 -63.918201 -704.779358 12.240772 -0.001473 179.998184 707.672058
54 0.264152 -56.074673 -717.424011 12.240772 -0.001473 179.998184 719.612183
[Rear_Toe1_01]
52 0.653352 83.966492 -371.173737 0.300222 34.463055 90.428787 380.553192
53 0.653352 83.966492 -371.173737 0.307262 35.544563 90.441032 380.553192
54 0.653352 83.966492 -371.173737 0.314691 36.626072 90.453613 380.553192
[Rear_Toe2_01]
52 178.200760 -294.826019 -362.060547 -8.205908 28.197668 -68.808868 499.765686
53 178.200760 -294.826019 -362.060547 -7.900011 29.885246 -67.622780 499.765686
54 178.200760 -294.826019 -362.060547 -7.804018 30.684086 -67.435753 499.765686
[Rear_Toe3_01]
52 -153.359680 -308.780914 -362.060852 3.795239 27.560047 -111.034599 499.952881
53 -153.359680 -308.780914 -362.060852 3.686275 28.811466 -111.461472 499.952881
54 -153.359680 -308.780914 -362.060852 3.633347 29.649263 -111.634041 499.952881
[planeLockWeightCenter]
52 999.990906 0.000305 -0.000238 -0.011814 -0.004373 -0.000015 999.990845
53 1000.000366 0.000305 -0.000219 -0.011814 -0.004373 -0.000015 1000.000366
54 1000.000488 0.000305 -0.000200 -0.011814 -0.004373 -0.000015 1000.000488
[Rear_Toe1_02]
52 379.707825 0.194073 0.000477 -0.004351 -33.588600 0.003047 379.707855
53 379.707825 0.194073 0.000477 -0.001509 -33.570538 0.002189 379.707855
54 379.707825 0.194073 0.000477 0.001332 -33.552460 0.001332 379.707855
[Rear_Toe1_03]
52 500.129700 0.165701 0.000119 0.009723 76.134827 0.009723 500.129761
53 500.129700 0.165701 0.000119 0.007567 72.155144 0.007567 500.129761
54 500.129700 0.165701 0.000119 -0.004961 69.196419 -0.001406 500.129761
[Rear_Toe2_02]
52 340.494507 0.000238 -0.000954 0.001200 -65.848969 0.001200 340.494507
53 340.494507 0.000238 -0.000954 0.001201 -65.595802 0.001201 340.494507
54 340.494507 0.000238 -0.000954 0.001199 -66.380013 0.001199 340.494507
[Rear_Toe2_03]
52 433.103577 0.000000 0.000238 0.005206 63.942318 0.005206 433.103546
53 433.103577 0.000000 0.000238 0.005137 63.587021 0.005137 433.103546
54 433.103577 0.000000 0.000238 0.005356 64.684166 0.005356 433.103546
[Rear_Toe3_02]
52 340.494141 -0.000358 -0.000477 0.006992 -63.338905 -0.008173 340.494171
53 340.494141 -0.000358 -0.000477 -0.002393 -62.203373 -0.002393 340.494171
54 340.494141 -0.000358 -0.000477 0.006929 -63.112377 -0.008111 340.494171
[Rear_Toe3_03]
52 433.103577 0.001431 -0.000238 -0.000445 60.447918 -0.004062 433.103546
53 433.103577 0.001431 -0.000238 -0.000335 58.976608 -0.003963 433.103546
54 433.103577 0.001431 -0.000238 -0.000423 60.156113 -0.004041 433.103546
[Back_Bone]
52 1312.175781 -701.934692 0.000954 2.790756 -1.457651 -85.682373 1488.125488
53 1312.175781 -701.934692 0.000954 2.790756 -1.457651 -85.682373 1488.125488
54 1312.175781 -701.934692 0.000954 2.790756 -1.457651 -85.682373 1488.125488
[Head]
52 1406.159424 809.709290 0.001431 -1.623609 2.697531 7.613079 1622.625488
53 1406.159424 809.709290 0.001431 -1.623609 2.697531 7.613079 1622.625488
54 1406.159424 809.709290 0.001431 -1.623609 2.697531 7.613079 1622.625488
[Motor_Bone]
52 1158.364380 -417.834747 0.000477 3.394448 -1.301977 -115.970810 1231.419434
53 1158.364380 -417.834747 0.000477 3.394448 -1.301977 -115.970810 1231.419434
54 1158.364380 -417.834747 0.000477 3.394448 -1.301977 -115.970810 1231.419434
[Ping_Mechanism]
52 1232.366699 -447.860443 -30.229527 0.000103 -0.000053 82.120995 1311.571777
53 1232.234009 -448.377045 -22.642996 0.000103 -0.000053 82.120995 1311.470703
54 1232.101563 -448.893707 -15.056449 0.000103 -0.000053 82.120995 1311.413940
[BN_LookIK]
52 193.241119 1380.371704 -0.002861 0.000000 89.965736 -31.038179 1393.832153
53 193.241119 1380.371704 -0.002861 0.000000 89.965736 -31.038179 1393.832153
54 193.241119 1380.371704 -0.002861 0.000000 89.965736 -31.038179 1393.832153
[bottomMouth]
52 -435.092926 615.759399 -0.000954 -0.000022 0.000016 73.527184 753.966492
53 -435.092926 615.759399 -0.000954 -0.000022 0.000016 73.527184 753.966492
54 -435.092926 615.759399 -0.000954 -0.000022 0.000016 73.527184 753.966492
[L_Mouth01]
52 554.440979 7.658243 838.222046 150.204178 23.759130 109.605339 1005.027161
53 554.440979 7.658243 838.222046 150.204178 23.759130 109.605339 1005.027161
54 554.440979 7.658243 838.222046 150.204178 23.759130 109.605339 1005.027161
[L_mouthFront]
52 551.629089 934.514771 339.150421 0.000081 2.804060 79.119301 1136.941284
53 551.629089 934.514771 339.150421 0.000081 2.804060 79.119301 1136.941284
54 551.629089 934.514771 339.150421 0.000081 2.804060 79.119301 1136.941284
[mouthGun]
52 55.332661 1627.420898 0.000000 0.000023 0.000009 -11.038128 1628.361328
53 55.332661 1627.420898 0.000000 0.000023 0.000009 -11.038128 1628.361328
54 55.332661 1627.420898 0.000000 0.000023 0.000009 -11.038128 1628.361328
[R_Mouth01]
52 554.442383 7.659197 -838.223938 29.795891 -23.759109 109.605331 1005.029541
53 554.442383 7.659197 -838.223938 29.795891 -23.759109 109.605331 1005.029541
54 554.442383 7.659197 -838.223938 29.795891 -23.759109 109.605331 1005.029541
[R_mouthFront]
52 551.629089 934.514282 -339.151367 0.000029 -2.803930 79.119133 1136.941162
53 551.629089 934.514282 -339.151367 0.000029 -2.803930 79.119133 1136.941162
54 551.629089 934.514282 -339.151367 0.000029 -2.803930 79.119133 1136.941162
[TopMouth]
52 461.269867 -56.106091 -0.008583 -0.000059 -0.000268 92.025169 464.669525
53 461.269867 -56.106091 -0.008583 -0.000059 -0.000268 92.025169 464.669525
54 461.269867 -56.106091 -0.008583 -0.000059 -0.000268 92.025169 464.669525
[weapon_bone]
52 -987.239868 1448.372803 0.001431 0.000000 89.965736 -31.038221 1752.833740
53 -987.239868 1448.372803 0.001431 0.000000 89.965736 -31.038221 1752.833740
54 -987.239868 1448.372803 0.001431 0.000000 89.965736 -31.038221 1752.833740
